<svg width="800" height="600" xmlns="http://www.w3.org/2000/svg">
 <g id="Layer_1">
  <title>Layer 1</title>
  <text style="cursor: move;" transform="matrix(7.35123 0 0 9.60464 -1435.66 -1637.39)" stroke="#000" font-weight="bold" xml:space="preserve" text-anchor="start" font-family="'Jura'" font-size="24" id="svg_1" y="207.72442" x="196.16596" stroke-width="0" fill="#000000">signUM</text>
  <path id="svg_3" d="m844.57985,395.29473c-0.01405,0.00132 -0.02841,0.00224 -0.04318,0.00224l0,0c-0.01321,0 -0.02605,-0.00072 -0.03857,-0.0018l0,0l-0.1084,0.13933l-0.02666,-0.00756c-0.03129,-0.00879 -0.06168,-0.01981 -0.09091,-0.03304l0,0l-0.02534,-0.01146l0.00652,-0.17501c-0.02304,-0.01613 -0.04453,-0.03408 -0.06444,-0.05376l0,0l-0.17139,0.03682l-0.01565,-0.02299c-0.01836,-0.02699 -0.03401,-0.05527 -0.04789,-0.08387l0,0l-0.01205,-0.02498l0.11637,-0.12881c-0.00728,-0.02727 -0.01209,-0.05543 -0.01458,-0.08412l0,0l-0.15421,-0.08154l0.0028,-0.02762c0.00331,-0.03304 0.0097,-0.06466 0.01734,-0.09505l0,0l0.00682,-0.02696l0.17201,-0.02381c0.01227,-0.02589 0.02671,-0.05042 0.04297,-0.07348l0,0l-0.06563,-0.1616l0.01981,-0.0194c0.02329,-0.02268 0.04822,-0.04324 0.07423,-0.06204l0,0l0.02253,-0.01625l0.14848,0.09325c0.02502,-0.01153 0.05119,-0.02101 0.07831,-0.02828l0,0l0.05382,-0.16701l0.02775,-0.00211c0.01494,-0.0011 0.03101,-0.00239 0.04847,-0.00239l0,0c0.01742,0 0.03343,0.00129 0.04838,0.00239l0,0l0.02775,0.00211l0.05441,0.16875c0.02608,0.00727 0.05135,0.01657 0.07557,0.02784l0,0l0.15056,-0.09458l0.02261,0.01625c0.02601,0.01877 0.05099,0.0394 0.07423,0.06198l0,0l0.01989,0.0194l-0.06765,0.16638c0.01474,0.02142 0.02803,0.04409 0.03938,0.06793l0,0l0.17738,0.02456l0.0069,0.02696c0.00775,0.03036 0.01411,0.06198 0.01734,0.09508l0,0l0.0028,0.02762l-0.1596,0.08437c-0.00239,0.02617 -0.00664,0.05194 -0.01299,0.07704l0,0l0.12024,0.13284l-0.01209,0.02507c-0.01383,0.02869 -0.0294,0.05707 -0.04784,0.08396l0,0l-0.01565,0.02293l-0.17564,-0.03763c-0.01861,0.01861 -0.03877,0.03575 -0.06031,0.05121l0,0l0.00669,0.17845l-0.0254,0.0115c-0.02926,0.01316 -0.0596,0.02422 -0.09089,0.03301l0,0l-0.02676,0.00756l-0.10864,-0.13968l0,0l0,0zm0.13939,0.04469c0.00937,-0.00312 0.01858,-0.00649 0.0277,-0.01008l0,0l-0.00627,-0.16852l0.01976,-0.01269c0.0296,-0.01921 0.05656,-0.04227 0.0805,-0.06844l0,0l0.01594,-0.01745l0.1662,0.03559c0.00499,-0.00835 0.00983,-0.01688 0.01449,-0.0256l0,0l-0.11368,-0.12569l0.00705,-0.02246c0.01003,-0.03234 0.01573,-0.06702 0.01742,-0.1032l0,0l0.00104,-0.02356l0.151,-0.07981c-0.00157,-0.00967 -0.00338,-0.01927 -0.00545,-0.02891l0,0l-0.16801,-0.02324l-0.00904,-0.02173c-0.01351,-0.0325 -0.03138,-0.06293 -0.05272,-0.09099l0,0l-0.01411,-0.01871l0.0639,-0.15719c-0.0074,-0.00649 -0.01499,-0.01279 -0.02279,-0.0189l0,0l-0.14264,0.08954l-0.02101,-0.01109c-0.03112,-0.01638 -0.06477,-0.02882 -0.10026,-0.03688l0,0l-0.02296,-0.00526l-0.05151,-0.15974c-0.00501,-0.00025 -0.00987,-0.00038 -0.01461,-0.00038l0,0c-0.00483,0 -0.0097,0.00013 -0.01474,0.00038l0,0l-0.05115,0.1587l-0.02329,0.00498c-0.03611,0.00775 -0.07055,0.02038 -0.10262,0.03697l0,0l-0.02096,0.0109l-0.14032,-0.08812c-0.00775,0.00611 -0.01535,0.01241 -0.02269,0.0189l0,0l0.0622,0.15306l-0.01461,0.01874c-0.02279,0.02926 -0.04173,0.06132 -0.05593,0.09574l0,0l-0.00899,0.02183l-0.1626,0.02249c-0.00206,0.00964 -0.00389,0.01924 -0.00542,0.02891l0,0l0.14577,0.07707l0.0009,0.02375c0.00153,0.03833 0.00794,0.07512 0.01896,0.10951l0,0l0.00721,0.02261l-0.11009,0.12179c0.00463,0.00875 0.00945,0.01729 0.01449,0.02564l0,0l0.16166,-0.0348l0.01609,0.01745c0.0248,0.02715 0.05313,0.05074 0.08434,0.07033l0,0l0.02014,0.01256l-0.00616,0.16594c0.00913,0.00359 0.01838,0.00696 0.02775,0.01008l0,0l0.10232,-0.13158l0.02337,0.00286c0.01764,0.00224 0.0348,0.00369 0.05189,0.00369l0,0c0.01838,0 0.03691,-0.00161 0.05585,-0.00428l0,0l0.02357,-0.00331l0.10311,0.13262l0,0l0,0zm0.04664,-0.34171l0.02255,0.03464l-0.14295,0.093l-0.05074,-0.07808l0,0c-0.01846,0.0045 -0.03786,0.00715 -0.05804,0.00715l0,0c-0.13969,0 -0.25288,-0.11322 -0.25288,-0.25277l0,0c0,-0.13968 0.11319,-0.25287 0.25288,-0.25287l0,0c0.13953,0 0.25276,0.11319 0.25276,0.25287l0,0c0,0.05735 -0.01927,0.11048 -0.05159,0.1529l0,0l0.02801,0.04315m-0.09617,0.01332l0.00446,-0.00283l-0.04075,-0.0627l0.02362,-0.02362c0.03088,-0.03096 0.04982,-0.07319 0.04982,-0.12021l0,0c-0.00017,-0.09401 -0.07629,-0.17013 -0.17019,-0.17032l0,0c-0.09412,0.00019 -0.17016,0.07622 -0.17032,0.17032l0,0c0.00016,0.09392 0.07628,0.17004 0.17032,0.17023l0,0c0.02101,0 0.04123,-0.00432 0.0608,-0.01181l0,0l0.03121,-0.01197l0.04104,0.06292l0,0z" stroke-width="0" stroke="#000" fill="#000000"/>
  <path id="svg_5" d="m626.1965,217.04677l0,0l0,-0.00946l0,0.00946zm0.0059,-0.00946l34.03063,27.29896l-34.03653,27.2895l12.51308,10.03909l46.54961,-37.33332l-46.54961,-37.33332l-12.50718,10.03909zm60.30102,63.94662l85.02645,0l0,-14.18146l-85.02645,0l0,14.18146zm25.56277,-29.55456l59.46367,0l0,-14.18146l-59.46367,0l0,14.18146zm-25.56277,-43.74075l0,14.19092l85.02645,0l0,-14.19092l-85.02645,0z" stroke-width="0" stroke="#000" fill="#000000"/>
  <path id="svg_6" d="m578.43675,283.95542l0,0l0,-0.00001l0,0.00001zm0.00001,-0.00001l0.02886,0.02887l-0.02886,0.02886l0.01061,0.01062l0.03947,-0.03948l-0.03947,-0.03948l-0.01061,0.01062zm0.05113,0.06762l0.0721,0l0,-0.015l-0.0721,0l0,0.015zm0.02168,-0.03125l0.05042,0l0,-0.015l-0.05042,0l0,0.015zm-0.02168,-0.04625l0,0.01501l0.0721,0l0,-0.01501l-0.0721,0z" stroke-width="0" stroke="#000" fill="#000000"/>
  <path id="svg_7" d="m513.4301,268.03542l0,0l0,-0.00001l0,0.00001zm0.00001,-0.00001l0.02886,0.02887l-0.02886,0.02886l0.01061,0.01062l0.03947,-0.03948l-0.03947,-0.03948l-0.01061,0.01062zm0.05113,0.06762l0.0721,0l0,-0.015l-0.0721,0l0,0.015zm0.02168,-0.03125l0.05042,0l0,-0.015l-0.05042,0l0,0.015zm-0.02168,-0.04625l0,0.01501l0.0721,0l0,-0.01501l-0.0721,0z" stroke-width="0" stroke="#000" fill="#000000"/>
  <path id="svg_8" d="m529.3501,306.67767l0,0l0,-0.00017l0,0.00017zm0.00001,-0.00017l0.02886,0.48749l-0.02886,0.48732l0.01061,0.17927l0.03947,-0.66668l-0.03947,-0.66668l-0.01061,0.17927zm0.05113,1.14192l0.0721,0l0,-0.25324l-0.0721,0l0,0.25324zm0.02168,-0.52777l0.05042,0l0,-0.25324l-0.05042,0l0,0.25324zm-0.02168,-0.7811l0,0.25341l0.0721,0l0,-0.25341l-0.0721,0z" stroke-width="0" stroke="#000" fill="#000000"/>
 </g>

</svg>